<svg id="Layer_1" data-name="Layer 1" xmlns="http://www.w3.org/2000/svg" xmlns:xlink="http://www.w3.org/1999/xlink" viewBox="0 0 425.2 425.2"><defs><clipPath id="clip-path"><path d="M120.31,225.14s18.12,45.23,86.65,53.8,117.09-20.17,131.89-49.3,7.07-57.34,6.26-66.35S120.31,225.14,120.31,225.14Z" fill="none"/></clipPath><clipPath id="clip-path-2"><path d="M228.07,101.29a144.62,144.62,0,0,0-26.59,2.44l-1.13.21c-46.4,9.06-80.71,40.3-80.71,77.35,0,22.91,8.85,42.35,25.6,56.22,18.79,15.55,47.44,23.77,82.83,23.77s64.05-8.22,82.84-23.77c16.75-13.87,25.6-33.31,25.6-56.22C336.51,137.18,287.87,101.29,228.07,101.29Z" fill="none"/></clipPath><radialGradient id="radial-gradient" cx="278.57" cy="-1249.6" r="113.91" gradientTransform="matrix(1, 0, 0, -1, 0, -1122.86)" gradientUnits="userSpaceOnUse"><stop offset="0" stop-color="#cacacc"/><stop offset="1" stop-color="#babbbe"/></radialGradient><clipPath id="clip-path-3"><path d="M311.88,116.51c-20.5-15.38-47.11-24.45-75.64-25.91-13.41,8.41-29.85,12.15-34.76,13.14a144.62,144.62,0,0,1,26.59-2.44c59.8,0,108.44,35.89,108.44,80,0,22.91-8.85,42.35-25.6,56.22-18.79,15.55-47.44,23.77-82.84,23.77s-64-8.22-82.83-23.77c-16.75-13.87-25.6-33.31-25.6-56.22,0-37.05,34.31-68.29,80.71-77.35l1.13-.21c4.91-1,21.35-4.73,34.76-13.14,6.23-3.9,11.8-8.8,15.27-14.9,4.51-8,5-16.75,1.36-26.15a5.45,5.45,0,1,0-10.18,3.91c2.42,6.29,2.2,11.8-.66,16.85-3.82,6.72-12.44,12.8-24.93,17.56a118.72,118.72,0,0,1-17.31,5.07c-20.81,3.83-39.93,11.87-55.52,23.57-22.92,17.19-35.54,40.2-35.54,64.79,0,26.27,10.22,48.62,29.55,64.62,21.08,17.44,51.29,26.28,89.79,26.28s68.72-8.84,89.79-26.28c19.34-16,29.56-38.35,29.56-64.62C347.42,156.7,334.8,133.69,311.88,116.51Z" fill="none"/></clipPath><linearGradient id="linear-gradient" x1="-261.25" y1="-478.57" x2="-59.2" y2="-478.57" gradientTransform="matrix(1.23, 0, 0, -1.35, 425.05, -556.43)" gradientUnits="userSpaceOnUse"><stop offset="0.09" stop-color="#f3f3f3"/><stop offset="0.64" stop-color="#e6e7e7"/><stop offset="0.69" stop-color="#d9dadb"/><stop offset="0.77" stop-color="#c8caca"/><stop offset="0.87" stop-color="#bfc0c2"/><stop offset="0.99" stop-color="#bbbdbf"/><stop offset="1" stop-color="#bbbdbf"/></linearGradient><radialGradient id="radial-gradient-2" cx="583.05" cy="-881.97" r="45.38" gradientTransform="matrix(0.99, 0.15, 0.15, -0.99, -220.33, -882.59)" gradientUnits="userSpaceOnUse"><stop offset="0" stop-color="#fff"/><stop offset="1" stop-color="#fff"/></radialGradient><clipPath id="clip-path-4"><path d="M213,108.71a5.6,5.6,0,0,1,4.14-6.75l.13,0a5.84,5.84,0,0,1,7,4.22,5.58,5.58,0,0,1-4.1,6.74l-.16,0a5.88,5.88,0,0,1-7-4.22m2.13-15.39a14.35,14.35,0,0,0-11,17l.09.36a15,15,0,0,0,17.92,10.79,14.35,14.35,0,0,0,11-17c0-.13-.05-.25-.08-.37a15,15,0,0,0-14.59-11.2,14.38,14.38,0,0,0-3.34.38" fill="none"/></clipPath><linearGradient id="linear-gradient-2" x1="-1690.45" y1="1037.16" x2="-1690.25" y2="1037.16" gradientTransform="translate(-133020.66 -217040.67) rotate(-90) scale(128.47)" gradientUnits="userSpaceOnUse"><stop offset="0" stop-color="#e9262a"/><stop offset="0.13" stop-color="#e9262a"/><stop offset="0.46" stop-color="#ba2026"/><stop offset="0.82" stop-color="#8b191b"/><stop offset="1" stop-color="#781216"/></linearGradient><clipPath id="clip-path-5"><rect x="186.33" y="84.04" width="75.76" height="55.54" transform="translate(-0.33 0.67) rotate(-0.17)" fill="none"/></clipPath><clipPath id="clip-path-6"><path d="M225.08,110.29a5.41,5.41,0,0,1-.78-3.25,5.59,5.59,0,0,1,2.81-4.5,5.86,5.86,0,0,1,7.93,1.93,5.58,5.58,0,0,1-1.88,7.67l-.12.08a6,6,0,0,1-3,.81,5.76,5.76,0,0,1-5-2.74M222.45,95A14.34,14.34,0,0,0,217,114.51l.2.34a15,15,0,0,0,20.35,5,14.36,14.36,0,0,0,5.4-19.57l-.19-.32a14.79,14.79,0,0,0-12.73-7A15,15,0,0,0,222.45,95" fill="none"/></clipPath><linearGradient id="linear-gradient-3" x1="-1641.68" y1="1025.02" x2="-1641.48" y2="1025.02" gradientTransform="translate(105971.1 169454.36) rotate(90) scale(103.16)" gradientUnits="userSpaceOnUse"><stop offset="0" stop-color="#e9262a"/><stop offset="0.01" stop-color="#e72629"/><stop offset="0.13" stop-color="#c62127"/><stop offset="0.27" stop-color="#aa1f23"/><stop offset="0.41" stop-color="#941b1e"/><stop offset="0.57" stop-color="#841719"/><stop offset="0.75" stop-color="#7c1317"/><stop offset="1" stop-color="#781216"/></linearGradient><clipPath id="clip-path-8"><rect x="226.38" y="101.76" width="9.47" height="10.66" transform="translate(-0.32 0.69) rotate(-0.17)" fill="none"/></clipPath><clipPath id="clip-path-9"><rect x="215.56" y="110.62" width="5.71" height="2.25" transform="translate(-0.33 0.65) rotate(-0.17)" fill="none"/></clipPath><clipPath id="clip-path-10"><path d="M233.09,104.27h0m-8.27,1.36a6.45,6.45,0,0,0-.27,1.07c-.09,3.34-1.69,5.86-5.34,6.33A5.91,5.91,0,0,1,213,108.4l-8.82,2a14.82,14.82,0,0,0,29-6.08.06.06,0,0,1,0-.06h0v-.18Z" fill="none"/></clipPath><linearGradient id="linear-gradient-4" x1="-1689.69" y1="1035.85" x2="-1689.49" y2="1035.85" gradientTransform="translate(-140914.95 -230099.23) rotate(-90) scale(136.25)" gradientUnits="userSpaceOnUse"><stop offset="0" stop-color="#e9262a"/><stop offset="0.21" stop-color="#e9262a"/><stop offset="0.27" stop-color="#dd2426"/><stop offset="0.5" stop-color="#b22024"/><stop offset="0.71" stop-color="#921b1d"/><stop offset="0.88" stop-color="#7f1518"/><stop offset="1" stop-color="#781216"/></linearGradient><radialGradient id="radial-gradient-3" cx="187.03" cy="-1409.35" r="32.98" xlink:href="#radial-gradient"/><radialGradient id="radial-gradient-4" cx="-3165.93" cy="-1409.35" r="32.98" gradientTransform="translate(-2962.24 -1122.86) rotate(180) scale(1.02 1)" xlink:href="#radial-gradient"/></defs><g id="Layer_1-2" data-name="Layer 1"><path d="M296.37,348.61l-70.15-1.44-70.15,1.44s2.52,31.66,10.07,50c0,0-5,6.48-1.44,9.36s36,.72,36,.72l4-33.82s7.92.72,21.59.72,21.58-.72,21.58-.72l4,33.82s32.38,2.16,36-.72-1.44-9.36-1.44-9.36C293.83,380.27,296.37,348.61,296.37,348.61Z" fill="#babbbe"/><path d="M296.37,348.61l-70.15-1.44-70.15,1.44s2.52,31.66,10.07,50c0,0-5,6.48-1.44,9.36s36,.72,36,.72l4-33.82s7.92.72,21.59.72,21.58-.72,21.58-.72l4,33.82s32.38,2.16,36-.72-1.44-9.36-1.44-9.36C293.83,380.27,296.37,348.61,296.37,348.61Z" fill="none" stroke="#231f20" stroke-linecap="round" stroke-linejoin="round" stroke-width="2.1"/><path d="M194.9,372.36c-.08.15.12.43.58.81a9.38,9.38,0,0,0,.91.58,11.22,11.22,0,0,0,1.27.58,21.74,21.74,0,0,0,3.46,1,38.51,38.51,0,0,0,4.29.61,56,56,0,0,0,7.77.15c2-.12,3.21-.33,3.25-.68s-1.18-.77-3.15-1.12-4.68-.62-7.64-.88c-1.48-.15-2.89-.26-4.16-.4s-2.4-.27-3.35-.41l-2.26-.33C195.37,372.18,195,372.2,194.9,372.36Z" fill="#231f20"/><path d="M261.25,372.36c-.08-.16-.43-.18-1-.1-.26.05-.61.07-1,.14s-.81.11-1.28.19c-1,.14-2.08.28-3.35.41l-4.16.4c-3,.26-5.68.53-7.64.88s-3.18.77-3.14,1.12,1.26.56,3.24.68a56.14,56.14,0,0,0,7.78-.15,38.85,38.85,0,0,0,4.29-.61,21.93,21.93,0,0,0,3.45-1,12.09,12.09,0,0,0,1.27-.58,7.8,7.8,0,0,0,.91-.58C261.13,372.79,261.37,372.51,261.25,372.36Z" fill="#231f20"/><path d="M120.31,225.14s18.12,45.23,86.65,53.8,117.09-20.17,131.89-49.3,7.07-57.34,6.26-66.35S120.31,225.14,120.31,225.14Z" fill="#98979a"/><g clip-path="url(#clip-path)"><path d="M258.83,264.4l67,10.91S146.37,291.6,145.67,291.1s-27.23-42.93-27.23-42.93l12-31.64Z" fill="#6f7072"/><path d="M120.31,225.14s18.12,45.23,86.65,53.8,117.09-20.17,131.89-49.3,7.07-57.34,6.26-66.35S120.31,225.14,120.31,225.14Z" fill="#d0d2d3"/></g><path d="M120.31,225.14s18.12,45.23,86.65,53.8,117.09-20.17,131.89-49.3,7.07-57.34,6.26-66.35S120.31,225.14,120.31,225.14Z" fill="none" stroke="#231f20" stroke-linecap="round" stroke-linejoin="round" stroke-width="2.1"/><path d="M285.12,286l12.94-13.9s-13.69-13.21-20.48-16.34c-6-2.74-13.21-5.34-14.17-4.15l-37.49,7.06-39.86.24c-1-1.21-5.28-5.88-11.25-3.15-6.82,3.13-20.48,16.34-20.48,16.34L167.27,286l1.22-1.72-.18.53c-10.09,30-13.37,69.58-13.37,69.58,14.2,5.73,44.69,8.34,71.3,8.34s57.09-2.61,71.29-8.34c0,0-3.29-39.86-13.46-69.87Z" fill="#e9262a" stroke="#020202" stroke-linecap="round" stroke-linejoin="round" stroke-width="2.1"/><path d="M287.42,295.33c.17,0,.27-.49.28-1.33a17.9,17.9,0,0,0-.42-3.5c-.15-.72-.34-1.52-.59-2.35s-.54-1.72-.88-2.64-.73-1.87-1.16-2.84-.9-2-1.43-3a61.76,61.76,0,0,0-3.19-5.46c-.54-.8-1-1.57-1.56-2.26s-1-1.35-1.44-1.91c-1.82-2.3-3.17-3.55-3.44-3.35s.53,1.83,1.94,4.35c1,1.82,1.88,3.3,2.5,4.39.92,1.66,1.94,3.47,2.93,5.41.51,1,1,1.92,1.43,2.84s.86,1.81,1.25,2.67.74,1.67,1.05,2.45.61,1.49.86,2.16c.51,1.32.88,2.41,1.18,3.17S287.24,295.36,287.42,295.33Z" fill="#020202"/><path d="M165,295.33c.21,0,.48-.38.79-1.13s.72-1.83,1.25-3.14c.27-.66.56-1.38.89-2.14s.69-1.58,1.07-2.43.81-1.74,1.26-2.66.92-1.86,1.43-2.82c1-1.93,2-3.74,2.91-5.4.6-1.1,1.43-2.6,2.44-4.42,1.37-2.54,2.14-4.19,1.79-4.45s-1.73,1-3.59,3.25c-.47.56-.95,1.2-1.47,1.89s-1,1.46-1.58,2.26A57.47,57.47,0,0,0,169,279.6c-.52,1-1,2-1.42,3s-.82,1.93-1.16,2.85-.62,1.81-.85,2.66a24,24,0,0,0-.57,2.37,15.49,15.49,0,0,0-.35,3.53C164.65,294.84,164.78,295.31,165,295.33Z" fill="#020202"/><path d="M257,307.37H239.11a2.06,2.06,0,0,0-2.07,2.07h0v3a13.76,13.76,0,0,0-1.88-1.86c-2.65-2.13-6.27-3.2-10.77-3.2H215.2a2.06,2.06,0,0,0-2.07,2.07h0V314c-.42-3-2.4-6.64-9.62-6.64H194.9a2.05,2.05,0,0,0-2.07,2.05v23.73a2.07,2.07,0,0,0,2.07,2.07h7a2.7,2.7,0,0,0,.56-.08,2,2,0,0,0,.55.08h1.31a14.61,14.61,0,0,0,3.95-.45,8.53,8.53,0,0,0,3.11-1.7,8.42,8.42,0,0,0,1.67-1.95v2a2.07,2.07,0,0,0,2.07,2.07h7.51a2,2,0,0,0,.6.12c1,0,1.75.07,2.2.07a14.33,14.33,0,0,0,10.39-4,13.87,13.87,0,0,0,4.1-10.27,16,16,0,0,0-.26-2.77h2.7v14.83a2.07,2.07,0,0,0,2.07,2.07h7.05a2.07,2.07,0,0,0,2.07-2.07h0V318.32h3.32a2.07,2.07,0,0,0,2.07-2.07h0v-6.81A2.06,2.06,0,0,0,257,307.37ZM211.8,320.05a7.87,7.87,0,0,0,1.33-3.27v4.83a7.37,7.37,0,0,0-1.33-1.56Zm12.73,4.13h-.16v-5.86h.31c4,0,4,1.67,4,2.77-.05,1.57-.37,3.09-4.15,3.09Z" fill="#be232f"/><path d="M194.9,309.44h8.61q7.67,0,7.66,6a6,6,0,0,1-2.62,5,5.92,5.92,0,0,1,3.81,5.89,6.5,6.5,0,0,1-2.25,5.18,6.8,6.8,0,0,1-2.34,1.29,12.8,12.8,0,0,1-3.37.36h-1.34v-6.1h1.2a3.19,3.19,0,0,0,1.49-.27,1,1,0,0,0,.44-.94c0-.77-.59-1.15-1.77-1.15h-1.36v-6.32c1.3,0,1.95-.45,1.95-1.34s-.59-1.23-1.76-1.23H202v17.35h-7Z" fill="#fff"/><path d="M222.26,316.25v16.9H215.2V309.44h9.17q6,0,9.47,2.74a10.88,10.88,0,0,1,4.07,8.91,11.78,11.78,0,0,1-3.48,8.79,12.27,12.27,0,0,1-8.94,3.41c-.43,0-1.13,0-2.11-.07v-7h1.13q6.17,0,6.17-5.16,0-4.85-6.06-4.84Z" fill="#fff"/><path d="M251.56,316.25v16.9h-7.05v-16.9h-5.4v-6.81H257v6.81Z" fill="#fff"/><g clip-path="url(#clip-path-2)"><rect x="98.32" y="86.41" width="257.65" height="185.78" stroke="#231f20" stroke-linecap="round" stroke-linejoin="round" stroke-width="3" fill="url(#radial-gradient)"/><path d="M202.69,101.29s77.83-3,117.44,46.75c14.43,18.12,34.8,93.51-63.89,113.24L362.73,238,369,110.12S228.62,71.16,202.69,101.29Z" fill="#d0d2d3"/><path d="M187.64,107.06s-65.41,25.13-69.27,89.16c0,0-22.56-50.59,1.32-71.46S187.64,107.06,187.64,107.06Z" fill="#d0d2d3"/></g><g clip-path="url(#clip-path-3)"><rect x="66.37" y="16.61" width="313.24" height="260.84" fill="#babbbe"/><path d="M309.42,117.51c-20.51-15.38-47.11-24.45-75.64-25.9-13.42,8.4-29.86,12.15-34.77,13.13a144.65,144.65,0,0,1,26.6-2.44c59.79,0,108.44,35.89,108.44,80,0,22.92-8.86,42.36-25.61,56.22C289.65,254.08,261,262.3,225.61,262.3s-64-8.22-82.84-23.78c-16.75-13.86-25.6-33.3-25.6-56.22,0-37,34.31-68.28,80.71-77.34l1.13-.22c4.91-1,21.35-4.73,34.77-13.13,6.22-3.9,11.8-8.81,15.26-14.9,4.51-8,5-16.76,1.37-26.16a5.47,5.47,0,1,0-10.19,4c2.42,6.29,2.2,11.8-.66,16.85-3.82,6.73-12.44,12.8-24.93,17.57A119.3,119.3,0,0,1,197.37,94c-20.86,3.82-40,11.87-55.57,23.52-22.92,17.2-35.54,40.21-35.54,64.79,0,26.27,10.22,48.62,29.56,64.63,21.07,17.43,51.28,26.28,89.79,26.28s68.76-8.81,89.76-26.24c19.33-16,29.55-38.36,29.55-64.63C345,157.76,332.37,134.75,309.42,117.51Z" fill="none" stroke="#e6e7e7" stroke-linecap="round" stroke-linejoin="round" stroke-width="3"/></g><path d="M311.88,116.51c-20.5-15.38-47.11-24.45-75.64-25.91-13.41,8.41-29.85,12.15-34.76,13.14a144.62,144.62,0,0,1,26.59-2.44c59.8,0,108.44,35.89,108.44,80,0,22.91-8.85,42.35-25.6,56.22-18.79,15.55-47.44,23.77-82.84,23.77s-64-8.22-82.83-23.77c-16.75-13.87-25.6-33.31-25.6-56.22,0-37.05,34.31-68.29,80.71-77.35l1.13-.21c4.91-1,21.35-4.73,34.76-13.14,6.23-3.9,11.8-8.8,15.27-14.9,4.51-8,5-16.75,1.36-26.15a5.45,5.45,0,1,0-10.18,3.91c2.42,6.29,2.2,11.8-.66,16.85-3.82,6.72-12.44,12.8-24.93,17.56a118.72,118.72,0,0,1-17.31,5.07c-20.81,3.83-39.93,11.87-55.52,23.57-22.92,17.19-35.54,40.2-35.54,64.79,0,26.27,10.22,48.62,29.55,64.62,21.08,17.44,51.29,26.28,89.79,26.28s68.72-8.84,89.79-26.28c19.34-16,29.56-38.35,29.56-64.62C347.42,156.7,334.8,133.69,311.88,116.51Z" fill="none" stroke="#231f20" stroke-miterlimit="10" stroke-width="2.1"/><path d="M326.14,111.26v-.33c0-.82-.07-1.66-.07-2.53h0c-1.7-30.44-26.86-55.89-61.94-66.57H264c-1.06-.32-2.13-.64-3.22-.93s-2.29-.61-3.45-.89c-.32-5.9-4.77-10.23-10.22-10.22h0l-39.7,0c-5.46,0-9.9,4.38-10.18,10.3C158.32,49.76,130,77.18,128.86,110l-.08-.08c.07,30.93-52.85,52.14,98.66,47.85,28.64-.81,55-.67,76-1.67l-.05,0c12.65-.6,4.28-.22,4.28-.22C353.13,151.87,327.68,139.4,326.14,111.26Z" fill="#231a16" opacity="0.3" style="isolation:isolate"/><path d="M351,145.51c-.25-6.71-23.32-10.22-24.86-38.36v-.33c0-.82-.07-1.67-.07-2.53h0c-1.81-32.38-30.14-59.09-68.74-68.43C257,30,252.54,25.63,247.09,25.64l-39.72.06c-5.47,0-9.91,4.38-10.19,10.3-38.87,9.63-67.18,37.05-68.33,69.82l-.08-.07c.07,30.93-25.87,33.4-25.85,40.4,0,.34.25.65.71,1,3.91,3.76,57.84,6.63,123.8,6.5,68.5-.14,124-3.48,124-7.46C351.48,145.92,351.31,145.7,351,145.51Z" stroke="#231f20" stroke-miterlimit="10" stroke-width="3" fill="url(#linear-gradient)"/><path d="M284,45.89s35.5,25.47,36,60.08c0,0-1.28,22.68,7.22,26.48,0,0,32.68,14.49-38.84,16.47,0,0-85.74,3.31-124.23,3.81,0,0,120.25,3.27,176.55-3.63,0,0,14.4-.15,9.14-6,0,0-17.12-12.28-19.91-20.26,0,0-4.05-8.48-4.49-23.85C325.49,99,321.54,64.29,284,45.89Z" fill="#231a16" opacity="0.2" style="isolation:isolate"/><path d="M351,145.51c-.25-6.71-23.32-10.22-24.86-38.36v-.33c0-.82-.07-1.67-.07-2.53h0c-1.81-32.38-30.14-59.09-68.74-68.43C257,30,252.54,25.63,247.09,25.64l-39.72.06c-5.47,0-9.91,4.38-10.19,10.3-38.87,9.63-67.18,37.05-68.33,69.82l-.08-.07c.07,30.93-25.87,33.4-25.85,40.4,0,.34.25.65.71,1,3.91,3.76,57.84,6.63,123.8,6.5,68.5-.14,124-3.48,124-7.46C351.48,145.92,351.31,145.7,351,145.51Z" fill="none" stroke="#231f20" stroke-miterlimit="10" stroke-width="2.1"/><path d="M206,32.43l-.7,90.42s-.18,7.07,8.22,7.22l37.19-.2s10,1.94,8.58-15.12l-.35-80.82s2.34-9.19-7.86-9.39l-38.49.89S206,26.16,206,32.43Z" fill="#d3d4d4" stroke="#231f20" stroke-miterlimit="10" stroke-width="2.1"/><path d="M197.57,32.42l-.71,90.42s-.17,7.08,8.22,7.23l37.19-.2s9.95,1.94,8.59-15.13l-.36-80.82s2.35-9.18-7.85-9.38l-38.5.88S197.61,26.16,197.57,32.42Z" stroke="#231f20" stroke-miterlimit="10" stroke-width="2.1" fill="url(#radial-gradient-2)"/><path d="M232.69,103.25v-.36s-.08-.36-.13-.55l-.18-.68h0v-.13s-.11-.35-.17-.53l-.09-.22a.91.91,0,0,0-.11-.3c0-.1,0-.07,0-.11l-.12-.27c0-.12-.1-.24-.16-.36s-.08-.18-.13-.27a.89.89,0,0,0-.08-.17l-.09-.17c0-.1-.1-.2-.16-.3l-.18-.31-.18-.3-.08-.14-.09-.13-.37-.44-.17-.24c-.1-.14-.2-.27-.31-.4l-.11-.16-.06-.07-.13-.15-.29-.34-.15-.16c-.1-.12-.21-.23-.32-.34l-.12-.13-.45-.43h0l-.58-.49-.17-.14c-.14-.11-.28-.23-.43-.33l-.23-.17-.39-.27-.25-.16-.41-.25-.25-.15-.45-.24-.22-.12-.63-.29h-.06l-.71-.29-.22-.08-.5-.17h-.1l-.34-.1h-.14c-.21-.06-.41-.11-.62-.15h-.15l-.48-.09h-.58l-.46-.06h-4.13l-.65.13h-.33l-.35.09-.23.07-.35.11h-.22l-.37.13-.19.07-.48.2h-.06l-.55.26-.17.08-.38.21h-.17l-.5.3h-.08c-.19.11-.37.24-.55.36h-.07c-.22.17-.45.33-.66.51h-.06l-.64.55h0l-.4.38-.08.09-.3.31-.13.15-.23.26c0,.06-.09.12-.14.17l-.21.26-.14.18-.19.27-.13.18-.19.27-.12.19-.18.3a.86.86,0,0,0-.1.16l-.23.4v.08s-.17.33-.25.49l-.07.14-.16.36a.2.2,0,0,1-.08.19c-.08.06-.09.21-.13.32l-.08.21a1.63,1.63,0,0,0-.11.31l-.08.21a1,1,0,0,1-.1.32l-.06.22-.09.32v.21c0,.07-.06.24-.08.37a.48.48,0,0,0,0,.17,3.33,3.33,0,0,1-.1.55l-.33,2a3.76,3.76,0,0,1,.1-.55c0-.19,0-.12,0-.18a2.74,2.74,0,0,1,.08-.36l.06-.21a.46.46,0,0,1,.09-.33l.06-.21a1,1,0,0,1,.1-.32l.07-.21a1.15,1.15,0,0,1,.11-.31l.08-.21c0-.11.09-.21.13-.32s0-.13.08-.19.11-.24.17-.35l.06-.15.25-.49a.22.22,0,0,1,0-.08c.07-.14.14-.27.22-.4l.1-.16c.06-.1.12-.2.19-.3l.12-.19.18-.27a2.14,2.14,0,0,0,.13-.19c.07-.08.13-.17.2-.26l.14-.18.21-.26.14-.17c.07-.09.15-.17.23-.26l.13-.15.29-.31.09-.09c.13-.13.26-.26.4-.38h0c.2-.19.41-.37.63-.55h.06c.22-.18.44-.34.67-.51l.12-.08c.17-.13.36-.25.54-.37h.08l.5-.3.17-.1.39-.2.16-.08.56-.26h.06l.48-.2.19-.07.38-.13.22-.08.34-.1.23-.07.35-.09.33-.08a4.67,4.67,0,0,0,.65-.13h.19l.44-.06h3.49l.47.06h.57l.49.09h.14l.62.16h.15l.43.13.5.17.23.08.7.29h.07l.62.29.23.12.44.24.25.15c.14.08.28.16.41.25l.25.16.4.27.23.17q.21.15.42.33l.18.13c.19.17.39.33.57.5l.46.44.13.13.32.33a2.09,2.09,0,0,0,.14.17l.3.34.12.15.18.23c.1.13.21.26.3.39l.18.25c.09.13.18.26.26.4l.18.27.18.29.18.32c0,.1.1.2.16.3s.11.23.17.34l.12.26c.06.13.11.25.17.37l.11.27c.06.13.11.27.16.41s.05.14.08.22l.18.53a.28.28,0,0,0,0,.13c.07.23.13.46.19.69s.1.43.14.64,0,.18.05.27a1.59,1.59,0,0,1,.07.41,1.31,1.31,0,0,0,0,.28v3.16c0,.29-.06.59-.11.89h0l.33-2c.05-.29.08-.59.11-.89v-3.44a.93.93,0,0,0-.07-.41" fill="#808184"/><path d="M218.79,122.14a15.46,15.46,0,0,1-9.33-3.13,14.87,14.87,0,0,1-5.46-8.24,14.26,14.26,0,0,1,1.71-11,15.14,15.14,0,0,1,12.77-7,15.46,15.46,0,0,1,9.34,3.12,14.89,14.89,0,0,1,5.45,8.24,14.27,14.27,0,0,1-1.71,11,14.77,14.77,0,0,1-9.38,6.67,16.17,16.17,0,0,1-3.39.39M218.58,102a5.29,5.29,0,0,0-1.26.14,5.48,5.48,0,0,0-3.48,2.47,5.26,5.26,0,0,0-.63,4.06,5.59,5.59,0,0,0,5.49,4.21h0a5.84,5.84,0,0,0,1.25-.14,5.5,5.5,0,0,0,3.48-2.47,5.27,5.27,0,0,0,.63-4.06,5.56,5.56,0,0,0-5.48-4.21" fill="#fff"/><g clip-path="url(#clip-path-4)"><rect x="199.12" y="89.93" width="37.44" height="35.61" transform="translate(-15.88 41.13) rotate(-10.41)" fill="url(#linear-gradient-2)"/></g><g clip-path="url(#clip-path-5)"><path d="M243,98.67c0-.08-.08-.16-.13-.24v-.09l-.29-.49c-.12-.2-.25-.41-.39-.6h0l-.07-.11-.33-.45-.15-.19-.2-.26-.08-.09c-.06-.08-.13-.15-.19-.22l-.27-.31-.2-.22-.14-.14-.13-.13-.25-.24-.27-.25-.26-.23-.13-.11-.13-.1c-.12-.11-.25-.21-.38-.31l-.24-.18-.42-.29-.16-.12h-.08l-.17-.11-.39-.24a.93.93,0,0,0-.19-.11l-.41-.23-.16-.09-.57-.27h0c-.23-.11-.47-.21-.71-.3l-.21-.08-.52-.19-.27-.09-.47-.14-.3-.08-.47-.12-.29-.06-.51-.09h-.25c-.23,0-.47-.07-.7-.09h-.16a3.42,3.42,0,0,1-.78-.06h-2.2l-.5.06h-.59l-.47.09-.3.06-.48.12h-.29l-.34.1-.36.11-.33.12-.26.09h-.1l-.27.11-.38.17-.27.12-.21.1-.2.1-.18.09c-.2.11-.4.21-.59.33l-.17.1-.13.08-.32.2-.2.14-.3.2-.12.09H221l-.32.25-.16.13c-.14.11-.28.22-.41.34a0,0,0,0,0-.05,0h0l-.46.43-.14.13-.31.31-.08.08-.06.07c-.14.14-.27.29-.4.44l-.06.07c-.15.17-.29.35-.42.52h0v.07c-.18.23-.34.46-.5.7v.06c-.16.24-.31.48-.46.73h0c-.1.16-.19.33-.28.49l-.05.12-.2.39-.08.18-.15.33-.08.21-.13.31c0,.07-.05.14-.08.22a1,1,0,0,1-.11.31,1.76,1.76,0,0,0-.07.22c0,.07-.07.22-.1.33l-.06.21-.09.35v.19l-.27.79a.17.17,0,0,0,0,.1,3.76,3.76,0,0,1-.1.55c0,.19,0,.1,0,.16a1.25,1.25,0,0,1-.05.39.74.74,0,0,0,0,.21v2.83a1.9,1.9,0,0,0,.07.56l.29,2.07a5,5,0,0,0-.07-.56.47.47,0,0,1,0-.19v-.38a.81.81,0,0,1,0-.22v-.34a.88.88,0,0,1,0-.23v-1.69a1.22,1.22,0,0,1,.05-.39v-.16a3.5,3.5,0,0,1,.09-.55v-.1a1.65,1.65,0,0,1,.1-.44,1.17,1.17,0,0,1,.05-.2l.09-.35.06-.21a1.7,1.7,0,0,1,.1-.32.81.81,0,0,1,.07-.22,1,1,0,0,1,.11-.32l.08-.21.12-.32.09-.21.15-.32a1.08,1.08,0,0,1,.08-.19c.06-.13.13-.26.19-.38l.06-.12.27-.5h0c.14-.25.29-.49.45-.73l.05-.07c.15-.24.32-.47.49-.7l.09-.11.43-.53.06-.06.4-.45.13-.14.32-.32.13-.13.55-.51h0l.41-.34.16-.13.33-.24.19-.14.3-.21.21-.14.31-.2.3-.18.6-.32.19-.1.41-.2.27-.13.39-.17.27-.1.36-.14.33-.12.36-.11.33-.1.29-.08.49-.11.3-.07.47-.09L228,93h2.92l.77,0h.08l.69.1h.26l.51.09.29.07.47.11.29.08.47.15.28.08.51.19.21.08.72.31.57.28.17.09.41.22.19.11.39.24.17.11.24.16.42.3.24.18.38.3.25.21.26.23.27.25.25.24.27.28.21.22.27.3c.06.07.12.15.19.22l.27.35.15.19c.12.15.23.31.33.46l.08.11c.14.2.27.4.4.61l.33.58c0,.08.08.16.13.24l.19.38.12.26c.06.12.11.24.16.37a2.55,2.55,0,0,1,.13.29l.14.36.1.3a3.38,3.38,0,0,1,.11.34c0,.12.08.25.12.38l.09.32a1.86,1.86,0,0,0,.1.39l.06.29c.06.3.12.6.16.9h0l-.29-2.07a4.08,4.08,0,0,0-.17-.9v-.28a2.79,2.79,0,0,0-.1-.39,3,3,0,0,0-.08-.32l-.12-.39-.06-.19v-.14l-.11-.3a1.07,1.07,0,0,0-.14-.36l-.12-.3a.61.61,0,0,1-.07-.17l-.09-.19a2.1,2.1,0,0,0-.13-.26c-.06-.13-.12-.26-.19-.38" fill="#a8aaad"/><path d="M230,122.07A15.11,15.11,0,0,1,217.11,115a14.25,14.25,0,0,1-1.66-11,14.7,14.7,0,0,1,7-9.17,15.27,15.27,0,0,1,7.71-2.1A15.09,15.09,0,0,1,243,99.79a14.3,14.3,0,0,1,1.66,11,14.84,14.84,0,0,1-6.94,9.17,15.6,15.6,0,0,1-7.71,2.1m.06-20.14a5.67,5.67,0,0,0-2.87.78,5.47,5.47,0,0,0-2.59,3.41,5.32,5.32,0,0,0,.62,4.08,5.69,5.69,0,0,0,7.67,1.86,5.5,5.5,0,0,0,2.59-3.41,5.31,5.31,0,0,0-.62-4.08,5.58,5.58,0,0,0-4.8-2.64" fill="#fff"/></g><g clip-path="url(#clip-path-6)"><rect x="207.6" y="86.47" width="44.92" height="43.88" transform="translate(-23.27 130.88) rotate(-30.3)" fill="url(#linear-gradient-3)"/></g><g clip-path="url(#clip-path-5)"><path d="M233.06,104.07c0,.15.22.15.22.15a15,15,0,0,1-11.37,17.58,16.06,16.06,0,0,1-3.31.37,15,15,0,0,1-9.31-3.23,15.2,15.2,0,0,1-5.35-8.49l.29.09,8.63-2,.25-.23a5.74,5.74,0,0,0,5.61,4.51h.47a5.69,5.69,0,0,0,4-2.3,6.58,6.58,0,0,0,1-3.19l.09-.74,5.11-1.81,3.45-.55Z" fill="#fff"/><path d="M215.5,110.38a13.76,13.76,0,0,1,.14-6.35h-.19a14.31,14.31,0,0,0-.21,6.11Z" fill="#fff"/><g clip-path="url(#clip-path-8)"><path d="M235.77,106.4a.24.24,0,0,1,0-.12v-.15a2,2,0,0,0-.09-.35h0a5.19,5.19,0,0,0-.57-1.27,5.49,5.49,0,0,0-2.57-2.24,5.3,5.3,0,0,0-1.39-.42,6.1,6.1,0,0,0-2.72.25,9.12,9.12,0,0,0-2,1,5,5,0,0,1,1-.38,5.91,5.91,0,0,1,5.65,1.33l.12.12a5.57,5.57,0,0,1,.8,1c.09.14.17.28.25.43a8,8,0,0,1,.4,1,5.73,5.73,0,0,1-.65,4.65,7.45,7.45,0,0,1-1.24,1.27,8,8,0,0,0,1.07-.68h0a5.94,5.94,0,0,0,1.33-1.54l.05-.09.1-.18a5.49,5.49,0,0,0,.55-3.51" fill="#808184"/></g><path d="M224.1,109.23l-.13-.09a5.39,5.39,0,0,1-2.7,3.06l-.09,0h0l-.11,0h-.17l-.27.11h-.14l-.28.09h-.15a5.88,5.88,0,0,1-5.14-1.28h0l-.25-.24-.11-.12-.06-.07a3.37,3.37,0,0,1-.3-.36h0l-.26-.39a.14.14,0,0,1,0-.09l-.09-.15a1.11,1.11,0,0,1-.07-.13l-.06-.12a2.56,2.56,0,0,1-.11-.24l-.06-.14v-.12a1.23,1.23,0,0,0-.08-.22h0l-.09-.33a5.28,5.28,0,0,1,.26-3.26,5.81,5.81,0,0,1,1.44-2l.37-.31v-.27a5.27,5.27,0,0,0-1,.89,5.52,5.52,0,0,0,0,7.42l.07.07.06.07a5.39,5.39,0,0,0,.56.5h0a6.44,6.44,0,0,0,3.09,1.29h1.16a6.21,6.21,0,0,0,2.92-1.13h0a5.49,5.49,0,0,0,1.95-2.67" fill="#fff"/><path d="M215.1,110.09a5.43,5.43,0,0,1-.72-1.23h0a6.68,6.68,0,0,1-.27-.83,5.28,5.28,0,0,1,.1-3,6.52,6.52,0,0,1,1-1.76V103l-.37.31a5.81,5.81,0,0,0-1.44,2,5.19,5.19,0,0,0-.25,3.28.47.47,0,0,0,.08.31h0a.58.58,0,0,0,.08.22c0,.07,0,.08,0,.12l.06.14.11.24.06.12a.12.12,0,0,0,.07.13l.09.15a.14.14,0,0,0,0,.09,5.35,5.35,0,0,0,.58.77l.06.07.11.12.25.24h0a5.93,5.93,0,0,0,1.13.77,15.17,15.17,0,0,1-.44-1.56,5.62,5.62,0,0,1-.46-.53" fill="#808184"/><g clip-path="url(#clip-path-9)"><path d="M220,112.69h.15l.28-.09h.14l.27-.11H221l.11,0h0l.09,0-.17,0a6.89,6.89,0,0,1-1.35.15,6,6,0,0,1-4.19-1.78,15.17,15.17,0,0,0,.44,1.56,5.62,5.62,0,0,0,4,.51" fill="#808184"/></g><path d="M227.11,102.51a5.57,5.57,0,0,0-2.81,4.5,5.41,5.41,0,0,0,.78,3.25,5.85,5.85,0,0,0,7.93,1.92,5.59,5.59,0,0,0,2.07-7.63.75.75,0,0,1-.07-.12,5.84,5.84,0,0,0-7.93-1.92m8.37,6.1a5.46,5.46,0,0,1-2.57,3.39,5.67,5.67,0,0,1-2.87.78,5.6,5.6,0,0,1-4.79-2.63,5.32,5.32,0,0,1-.75-3.13,5.45,5.45,0,0,1,2.72-4.34,5.84,5.84,0,0,1,2.86-.78,5.63,5.63,0,0,1,4.79,2.64,5.32,5.32,0,0,1,.61,4.07" fill="#fff"/></g><g clip-path="url(#clip-path-10)"><rect x="202.4" y="101.04" width="33.93" height="25.45" transform="translate(-19.62 50.93) rotate(-12.68)" fill="url(#linear-gradient-4)"/></g><rect x="186.33" y="84.04" width="75.76" height="55.54" transform="translate(-0.33 0.67) rotate(-0.17)" fill="none"/><path d="M134.81,112.3s.13-26.7,12.27-38.52c0,0,13.5-18.66,32.15-25.63,0,0,4.89-.83,5.36,2.94,0,0-.43,2.74-11.55,8.75,0,0-25.16,14.49-29.56,38.51,0,0,0,16.51-4.68,16.87C138.8,115.22,136.37,116,134.81,112.3Z" fill="#fff"/><path d="M166.77,162.73c-4.94-.46-10.34,3.71-13.06,9.83s-2.24,16.43,4.9,18.55,14.5-4.42,16.44-11S175.53,163.56,166.77,162.73Z" fill="#d0d2d3"/><path d="M167.91,163.08c-4.47-.43-9.36,3.45-11.83,9.15s-2,15.28,4.44,17.25,13.15-4.11,14.9-10.19S175.86,163.85,167.91,163.08Z" fill="#231f20"/><path d="M165.37,170.51c-.8,1.43-2.06,2.25-2.83,1.82s-.74-1.93,0-3.36,2.06-2.25,2.83-1.83S166.17,169,165.37,170.51Z" fill="#fff"/><path d="M176,172.59c-1.58,2.87-4.54,4.26-6.6,3.12s-2.44-4.38-.86-7.25,4.54-4.26,6.6-3.11S177.58,169.73,176,172.59Z" fill="#fff"/><path d="M280.05,162.73c4.94-.46,10.34,3.71,13.06,9.83s2.24,16.43-4.9,18.55-14.5-4.42-16.44-11S271.29,163.56,280.05,162.73Z" fill="#d0d2d3"/><path d="M281.64,163.08c4.47-.43,9.37,3.45,11.83,9.15s2,15.28-4.44,17.25-13.14-4.11-14.89-10.19S273.7,163.85,281.64,163.08Z" fill="#231f20"/><path d="M283.45,170.51c-.79,1.43-2.05,2.25-2.82,1.82s-.74-1.93.05-3.36,2.06-2.25,2.83-1.83S284.25,169,283.45,170.51Z" fill="#fff"/><path d="M294.07,172.59c-1.59,2.87-4.54,4.26-6.6,3.12s-2.44-4.38-.86-7.25,4.54-4.26,6.6-3.11S295.65,169.73,294.07,172.59Z" fill="#fff"/><path d="M220.89,234.67c-18.89-1.84-26.89-10-28-16.5-.38-2.23-.08-3.9.9-4.95a3.72,3.72,0,0,1,3.21-1.08,4.72,4.72,0,0,1,.64.1,59.56,59.56,0,0,1,6.59,2.14A60.42,60.42,0,0,0,221,218.73a55.19,55.19,0,0,0,9.62,0,69.17,69.17,0,0,0,19.74-5,6,6,0,0,1,3.13-.49,5.54,5.54,0,0,1,1.78.44l.16.08c2.68,1.64,1.93,5.52,1.06,7.55-5.25,12.08-26.72,13.72-27.63,13.79h-.11C226,235.05,223.37,234.91,220.89,234.67Z" fill="#ab716c"/><path d="M188.09,216.21c-6.68,6.68,5.65,24.49,30.3,27,32,3.21,53.78-21.05,39.89-20.84-10.68.16-1.81,16.21-44.71,12.27C194.31,232.84,190,214.29,188.09,216.21Z" fill="#d0d2d3"/><path d="M204.83,229.41c-.06-.16,4-4.69,16.77-5.25s24.4-1.68,28.6,4.87S207.11,234.87,204.83,229.41Z" fill="#fcdce0" stroke="#010101" stroke-miterlimit="10" stroke-width="2"/><path d="M261.48,215s-1.18-6.92-9.78-5.23c0,0-8.79,2.67-9.39,2.77,0,0-10.69,2.13-15.18,2.56,0,0-7.95.58-26.7-5.69,0,0-9.53-4.57-12,4.91s8.08,16.72,12.76,19.11c0,0,23.85,13.49,50.13-.76C251.37,232.64,264,225.94,261.48,215Zm-6.4,5.72c-5,11.38-26.36,12.88-26.36,12.88-26.09-.22-33.46-10.42-34.36-15.65s2.67-4.27,3-4.2a61.15,61.15,0,0,1,6.31,2.06c10.58,4.27,18.78,5.15,27,4.48a70.5,70.5,0,0,0,20.18-5.19,4.79,4.79,0,0,1,3.68-.06c2.37,1.4.55,5.68.55,5.68Z" fill="#020202"/><path d="M156,274.77l11,11.48-1.2,3.76,25-5.68L203.94,283s-1.58-10.25,1.06-14.67,5.77-9.48,14.77-7.73c0,0,11.21,3.48,2.41,24.86,0,0-2.77,9.24-10.39,11.24l-1.07.18-1.49.6-1.38,1.41s-28.66,22.15-52.4,10.59c0,0-11.18-7.71-5.17-23.48l4.94-11.29.3-.5Z" fill="url(#radial-gradient-3)"/><path d="M165.59,290.06s19.8-6.23,38.36-7.1c0,0-4.13-23,13.57-23,0,0,10.33.77,7.62,15.05,0,0-3.23,21.5-15.25,21.89,0,0-24.67,20.79-49.72,14.85,0,0-14.6-3.48-10.73-22.73a53.47,53.47,0,0,1,6.4-15.35" fill="none" stroke="#020202" stroke-miterlimit="10" stroke-width="2.1"/><path d="M214,272c-1.34,2.63-1.15,6.12,1.67,7.67a7.53,7.53,0,0,0,7.54-.26c2.24-1.47,3.18-4,3.52-6.52.09-.67-.64-1.25-1.25-1.25a1.26,1.26,0,0,0-1.25,1.25,13.33,13.33,0,0,1-.34,1.52,5.08,5.08,0,0,1-.48,1.16,6.32,6.32,0,0,1-.33.56l-.18.25c.18-.24,0,0,0,.05s-.21.24-.33.35l-.2.19c0,.05-.37.29-.09.09a9.19,9.19,0,0,1-.85.52l-.15.07c-.24.14.27-.09,0,0l-.49.17c-.25.07-.51.13-.76.18h-.2c.41-.07.18,0,.08,0h-.42a9.37,9.37,0,0,1-1.06,0c-.27,0,.4.1.09,0s-.58-.13-.87-.22a4.29,4.29,0,0,1-1.09-.55c-.27-.18.14.17-.07-.06-.06-.07-.14-.13-.21-.2l-.12-.13c-.14-.14.09.18-.07-.11s-.17-.29-.25-.45c.16.33,0-.14-.06-.25s-.07-.47,0-.14a5,5,0,0,1,0-.55v-.53c0-.18-.06.3,0,0v-.21a5.06,5.06,0,0,1,.23-.87,1,1,0,0,1,.11-.32v-.1c.09-.25-.13.27,0,.12s.06-.15.1-.22a1.25,1.25,0,1,0-2.16-1.27Z" fill="#020202"/><path d="M159.62,292.65a7.69,7.69,0,0,1,2-1.9,11.66,11.66,0,0,1,2.38-1.23,11.17,11.17,0,0,1,2.6-.67,7.59,7.59,0,0,1,2.77.07,12.75,12.75,0,0,1-2.27,1.5c-.76.4-1.54.76-2.33,1.09a24.13,24.13,0,0,1-2.46.77A13.61,13.61,0,0,1,159.62,292.65Z" fill="#020202"/><path d="M296.37,274.77l-11.19,11.48L286.4,290l-25.46-5.68L247.59,283s1.61-10.25-1.08-14.67-5.87-9.48-15-7.73c0,0-11.41,3.48-2.44,24.86,0,0,2.81,9.24,10.57,11.24l1.09.18,1.52.6,1.4,1.41S272.83,321,297,309.44c0,0,11.38-7.71,5.26-23.48l-5-11.29-.31-.5Z" fill="url(#radial-gradient-4)"/><path d="M286.67,290.06s-20.15-6.23-39.05-7.1c0,0,4.21-23-13.81-23,0,0-10.52.77-7.76,15.05,0,0,3.29,21.5,15.52,21.89,0,0,25.12,20.79,50.63,14.85,0,0,14.86-3.48,10.91-22.73a53.23,53.23,0,0,0-6.51-15.35" fill="none" stroke="#020202" stroke-miterlimit="10" stroke-width="2.1"/><path d="M235.23,273.26l.08.16c.11.24-.06,0,0-.1a1.66,1.66,0,0,0,.12.31c0,.06.14.42.2.64l.09.4v.22h0c0,.28,0,.57,0,.86s.08-.29,0,0V276c0,.08-.21.58-.06.25-.08.16-.16.31-.25.46s-.22.27,0,0l-.18.21c-.06.06-.42.36-.2.2a5.64,5.64,0,0,1-.67.4,2.55,2.55,0,0,1-.54.22l-.71.19h-1.72c-.25,0,.32.07.07,0s-.33-.05-.49-.09-.54-.15-.8-.24h0l-.22-.1c-.18-.09-.36-.19-.52-.29s-.5-.37-.25-.16c-.17-.14-.33-.29-.49-.44a5.34,5.34,0,0,1-.39-.44c.18.22,0-.05-.06-.08l-.23-.37a4.79,4.79,0,0,1-.64-1.2,10.85,10.85,0,0,1-.44-2,1.25,1.25,0,0,0-2.41.67,8.62,8.62,0,0,0,3,5.83,7.6,7.6,0,0,0,4.28,1.5,7.52,7.52,0,0,0,3-.5,5,5,0,0,0,3.38-4.57,7.36,7.36,0,0,0-.84-3.48c-.75-1.42-2.9-.16-2.16,1.27Z" fill="#020202"/><path d="M281.6,289.12a7.51,7.51,0,0,1,2.74-.41,11.82,11.82,0,0,1,5.18,1.27,7.77,7.77,0,0,1,2.23,1.63,12.36,12.36,0,0,1-2.72-.06,23.94,23.94,0,0,1-2.53-.46,22.66,22.66,0,0,1-2.46-.77A13.48,13.48,0,0,1,281.6,289.12Z" fill="#020202"/></g></svg>